<?xml version="1.0" encoding="iso-8859-1"?>
<!-- Generator: Adobe Illustrator 19.0.0, SVG Export Plug-In . SVG Version: 6.00 Build 0)  -->
<svg version="1.1" id="Layer_1" xmlns="http://www.w3.org/2000/svg" xmlns:xlink="http://www.w3.org/1999/xlink" x="0px" y="0px"
	 viewBox="0 0 285.5 285.5" style="enable-background:new 0 0 285.5 285.5;" xml:space="preserve">
<g id="XMLID_222_">
	<path id="XMLID_223_" d="M40.186,62.75c0,23.666,18.367,43.109,41.594,44.857C74.397,94.306,70.186,79.012,70.186,62.75
		s4.212-31.556,11.594-44.857C58.553,19.641,40.186,39.084,40.186,62.75z"/>
	<path id="XMLID_224_" d="M101.053,139.389c-5.17-1.077-10.482-1.639-15.867-1.639c-42.801,0-77.622,34.821-77.622,77.623
		c0,8.284,6.716,15,15,15h1.025C35.19,190.145,63.781,157.051,101.053,139.389z"/>
	<path id="XMLID_225_" d="M162.936,125.5c34.601,0,62.75-28.149,62.75-62.75S197.537,0,162.936,0
		c-21.093,0-39.774,10.473-51.157,26.479c-7.289,10.25-11.594,22.764-11.594,36.271s4.305,26.021,11.594,36.271
		C123.162,115.027,141.844,125.5,162.936,125.5z"/>
	<path id="XMLID_226_" d="M277.936,270.5c0-63.411-51.589-115-115-115c-8.643,0-17.063,0.965-25.165,2.781
		c-38.121,8.543-69.149,36.066-82.606,72.092c-4.669,12.5-7.229,26.02-7.229,40.127c0,8.284,6.716,15,15,15h200
		C271.221,285.5,277.936,278.784,277.936,270.5z"/>
</g>
<g>
</g>
<g>
</g>
<g>
</g>
<g>
</g>
<g>
</g>
<g>
</g>
<g>
</g>
<g>
</g>
<g>
</g>
<g>
</g>
<g>
</g>
<g>
</g>
<g>
</g>
<g>
</g>
<g>
</g>
</svg>
